<?xml version="1.0" encoding="UTF-8" standalone="no"?><!DOCTYPE svg PUBLIC "-//W3C//DTD SVG 1.1//EN" "http://www.w3.org/Graphics/SVG/1.1/DTD/svg11.dtd"><svg width="100%" height="100%" viewBox="0 0 175 175" version="1.1" xmlns="http://www.w3.org/2000/svg" xmlns:xlink="http://www.w3.org/1999/xlink" xml:space="preserve" xmlns:serif="http://www.serif.com/" style="fill-rule:evenodd;clip-rule:evenodd;stroke-linecap:round;stroke-miterlimit:3;"><g><path id="Layer0_0_FILL" d="M47.95,78.05c-1.367,-1.367 -3.017,-2.05 -4.95,-2.05c-1.933,0 -3.583,0.683 -4.95,2.05c-1.367,1.367 -2.05,3.017 -2.05,4.95c0,1.933 0.683,3.583 2.05,4.95c1.367,1.367 3.017,2.05 4.95,2.05c1.933,0 3.583,-0.683 4.95,-2.05c1.367,-1.367 2.05,-3.017 2.05,-4.95c0,-1.933 -0.683,-3.583 -2.05,-4.95Z" style="fill-rule:nonzero;"/><path id="Layer0_0_1_STROKES" d="M10,147l0,-69c0,-7.167 1.333,-13.8 4,-19.9c2.133,-6.2 5.717,-11.817 10.75,-16.85c8.833,-8.833 19.5,-13.25 32,-13.25c0.533,0 1.067,0.017 1.6,0.05c0.533,-0.033 1.083,-0.05 1.65,-0.05l55,0c13.8,0 25.583,4.883 35.35,14.65c9.767,9.767 14.65,21.55 14.65,35.35l0,69m-106.65,-118.95c11.8,0.333 21.917,4.733 30.35,13.2c8.867,8.833 13.3,19.5 13.3,32c0,12.5 -4.433,23.15 -13.3,31.95c-8.8,8.867 -19.45,13.3 -31.95,13.3l-0.8,0m-41.95,-60.4c2.4,-5.6 5.95,-10.75 10.65,-15.45c9.367,-9.367 20.6,-14.233 33.7,-14.6m64.6,118.95l-67,0" style="fill:none;fill-rule:nonzero;stroke:#000;stroke-width:15px;"/></g></svg>