<?xml version="1.0" encoding="UTF-8" standalone="no"?><!DOCTYPE svg PUBLIC "-//W3C//DTD SVG 1.1//EN" "http://www.w3.org/Graphics/SVG/1.1/DTD/svg11.dtd"><svg width="100%" height="100%" viewBox="0 0 310 394" version="1.1" xmlns="http://www.w3.org/2000/svg" xmlns:xlink="http://www.w3.org/1999/xlink" xml:space="preserve" xmlns:serif="http://www.serif.com/" style="fill-rule:evenodd;clip-rule:evenodd;stroke-linejoin:round;stroke-miterlimit:2;"><path d="M258.606,223.747c1.303,-6.628 1.994,-13.475 1.994,-20.478c0,-17.525 -4.281,-34.069 -11.844,-48.647c7.563,-14.575 11.844,-31.119 11.844,-48.644c0,-7.006 -0.691,-13.85 -1.994,-20.478c20.26,16.25 33.266,41.191 33.266,69.122c0,27.934 -13.006,52.872 -33.266,69.125m-103.984,68.125c-27.934,0 -52.872,-13.006 -69.125,-33.266c6.628,1.303 13.475,1.994 20.478,1.994c17.528,0 34.069,-4.281 48.647,-11.844c14.578,7.563 31.119,11.844 48.647,11.844c7.003,0 13.85,-0.691 20.478,-1.994c-16.253,20.26 -41.191,33.266 -69.125,33.266m-137.25,-137.25c0,-27.931 13.006,-52.872 33.266,-69.122c-1.304,6.628 -1.994,13.472 -1.994,20.478c0,17.525 4.281,34.069 11.844,48.644c-7.563,14.578 -11.844,31.122 -11.844,48.647c0,7.003 0.69,13.85 1.994,20.478c-20.26,-16.253 -33.266,-41.191 -33.266,-69.125m192.587,20.478c1.304,-6.628 1.994,-13.472 1.994,-20.478c0,-7.003 -0.69,-13.85 -1.99,-20.478c7.234,5.806 13.54,12.715 18.662,20.478c-5.122,7.765 -11.428,14.675 -18.666,20.478m-75.815,34.862c6.628,1.304 13.475,1.994 20.478,1.994c7.003,0 13.85,-0.69 20.478,-1.994c-5.803,7.235 -12.712,13.544 -20.478,18.663c-7.766,-5.119 -14.675,-11.428 -20.478,-18.663m-34.86,-75.818c-1.303,6.628 -1.993,13.475 -1.993,20.478c0,7.006 0.69,13.85 1.993,20.478c-7.237,-5.803 -13.543,-12.713 -18.665,-20.478c5.122,-7.763 11.428,-14.672 18.665,-20.478m95.297,20.478c0,11.815 -2.343,23.087 -6.559,33.403c-10.316,4.216 -21.588,6.556 -33.4,6.556c-11.813,0 -23.084,-2.34 -33.4,-6.556c-4.216,-10.316 -6.559,-21.588 -6.559,-33.403c0,-11.813 2.343,-23.085 6.559,-33.4c10.316,-4.216 21.587,-6.556 33.4,-6.556c11.812,0 23.084,2.34 33.4,6.556c4.216,10.315 6.559,21.587 6.559,33.4m-19.481,-55.338c-6.628,-1.303 -13.475,-1.993 -20.478,-1.993c-7.003,0 -13.85,0.69 -20.478,1.993c5.803,-7.237 12.712,-13.543 20.478,-18.665c7.766,5.122 14.675,11.428 20.478,18.665m-109.081,6.694c0,-11.816 2.34,-23.087 6.556,-33.403c10.316,-4.213 21.588,-6.556 33.4,-6.556c11.022,0 21.572,2.04 31.316,5.734c-12.228,9.753 -22.257,22.153 -29.216,36.325c-14.169,6.956 -26.569,16.984 -36.325,29.213c-3.694,-9.741 -5.731,-20.291 -5.731,-31.313m0,97.291c0,-11.022 2.037,-21.572 5.731,-31.313c9.756,12.228 22.156,22.256 36.325,29.213c6.959,14.172 16.988,26.568 29.216,36.325c-9.744,3.693 -20.294,5.734 -31.316,5.734c-11.812,0 -23.084,-2.344 -33.4,-6.559c-4.216,-10.316 -6.556,-21.588 -6.556,-33.4m177.206,0c0,11.812 -2.341,23.084 -6.556,33.4c-10.316,4.215 -21.588,6.559 -33.4,6.559c-11.022,0 -21.572,-2.041 -31.316,-5.734c12.228,-9.757 22.256,-22.153 29.216,-36.325c14.169,-6.957 26.569,-16.985 36.325,-29.213c3.694,9.741 5.731,20.291 5.731,31.313m0,-97.291c0,11.022 -2.037,21.572 -5.731,31.313c-9.756,-12.229 -22.156,-22.257 -36.325,-29.213c-6.96,-14.172 -16.988,-26.572 -29.216,-36.325c9.744,-3.694 20.294,-5.734 31.316,-5.734c11.812,0 23.084,2.343 33.4,6.556c4.215,10.316 6.556,21.587 6.556,33.403m-88.603,-88.603c27.934,0 52.872,13.003 69.125,33.262c-6.628,-1.303 -13.475,-1.99 -20.478,-1.99c-17.528,0 -34.069,4.278 -48.647,11.844c-14.578,-7.566 -31.119,-11.844 -48.647,-11.844c-7.003,0 -13.85,0.687 -20.478,1.99c16.253,-20.259 41.191,-33.262 69.125,-33.262m154.622,137.247c0,-41.744 -24.266,-77.925 -59.431,-95.191c-17.263,-35.165 -53.444,-59.431 -95.191,-59.431c-41.747,0 -77.928,24.266 -95.191,59.431c-35.165,17.266 -59.431,53.447 -59.431,95.191c0,41.747 24.266,77.928 59.431,95.194c17.263,35.165 53.444,59.431 95.191,59.431c41.747,0 77.928,-24.266 95.191,-59.431c35.165,-17.266 59.431,-53.447 59.431,-95.194" style="fill-rule:nonzero;"/><text x="15.243px" y="392.093px" style="font-family:'ArialRoundedMTBold', 'Arial Rounded MT Bold', sans-serif;font-size:80px;fill:#231f20;">s<tspan x="60.473px 110.064px 144.537px 194.127px 244.533px " y="392.093px 392.093px 392.093px 392.093px 392.093px ">erena</tspan></text></svg>