<?xml version="1.0" encoding="UTF-8" standalone="no"?><!DOCTYPE svg PUBLIC "-//W3C//DTD SVG 1.1//EN" "http://www.w3.org/Graphics/SVG/1.1/DTD/svg11.dtd"><svg width="100%" height="100%" viewBox="0 0 310 394" version="1.1" xmlns="http://www.w3.org/2000/svg" xmlns:xlink="http://www.w3.org/1999/xlink" xml:space="preserve" xmlns:serif="http://www.serif.com/" style="fill-rule:evenodd;clip-rule:evenodd;stroke-linejoin:round;stroke-miterlimit:2;"><path d="M94.775,372.891l-23.099,0c0.029,2.682 0.569,5.047 1.622,7.094c1.053,2.047 2.451,3.59 4.196,4.628c1.745,1.039 3.669,1.558 5.775,1.558c1.413,0 2.703,-0.166 3.871,-0.498c1.168,-0.331 2.3,-0.851 3.396,-1.557c1.095,-0.707 2.105,-1.464 3.028,-2.271c0.922,-0.807 2.119,-1.903 3.59,-3.287c0.605,-0.52 1.47,-0.779 2.595,-0.779c1.211,0 2.192,0.332 2.942,0.995c0.749,0.663 1.124,1.6 1.124,2.811c0,1.067 -0.418,2.315 -1.254,3.742c-0.836,1.428 -2.098,2.797 -3.785,4.109c-1.687,1.313 -3.807,2.401 -6.359,3.266c-2.552,0.865 -5.486,1.298 -8.802,1.298c-7.585,0 -13.482,-2.163 -17.692,-6.488c-4.21,-4.326 -6.316,-10.194 -6.316,-17.606c0,-3.489 0.52,-6.726 1.558,-9.711c1.038,-2.984 2.552,-5.544 4.542,-7.678c1.989,-2.134 4.441,-3.77 7.353,-4.909c2.913,-1.139 6.142,-1.709 9.689,-1.709c4.614,0 8.572,0.973 11.874,2.92c3.302,1.946 5.775,4.463 7.419,7.548c1.643,3.086 2.465,6.229 2.465,9.43c0,2.97 -0.85,4.895 -2.552,5.775c-1.701,0.879 -4.095,1.319 -7.18,1.319Zm-23.099,-6.705l21.412,0c-0.289,-4.037 -1.377,-7.058 -3.266,-9.062c-1.889,-2.004 -4.376,-3.006 -7.462,-3.006c-2.941,0 -5.356,1.016 -7.245,3.049c-1.889,2.033 -3.035,5.04 -3.439,9.019Z" style="fill-rule:nonzero;"/><path d="M126.179,376.957l0,9.862c0,2.394 -0.563,4.189 -1.687,5.386c-1.125,1.197 -2.552,1.795 -4.283,1.795c-1.701,0 -3.1,-0.606 -4.196,-1.817c-1.095,-1.211 -1.643,-2.999 -1.643,-5.364l0,-32.874c0,-5.306 1.917,-7.959 5.753,-7.959c1.961,0 3.374,0.62 4.239,1.86c0.865,1.24 1.341,3.071 1.427,5.493c1.413,-2.422 2.862,-4.253 4.348,-5.493c1.485,-1.24 3.467,-1.86 5.947,-1.86c2.48,0 4.888,0.62 7.224,1.86c2.336,1.24 3.504,2.883 3.504,4.931c0,1.442 -0.498,2.631 -1.492,3.569c-0.995,0.937 -2.07,1.405 -3.223,1.405c-0.433,0 -1.478,-0.266 -3.136,-0.8c-1.658,-0.533 -3.122,-0.8 -4.391,-0.8c-1.73,0 -3.143,0.454 -4.239,1.362c-1.096,0.909 -1.946,2.257 -2.552,4.045c-0.605,1.788 -1.024,3.915 -1.254,6.38c-0.231,2.466 -0.346,5.472 -0.346,9.019Z" style="fill-rule:nonzero;"/><path d="M184.012,372.891l-23.099,0c0.029,2.682 0.57,5.047 1.622,7.094c1.053,2.047 2.452,3.59 4.196,4.628c1.745,1.039 3.67,1.558 5.775,1.558c1.413,0 2.704,-0.166 3.871,-0.498c1.168,-0.331 2.3,-0.851 3.396,-1.557c1.096,-0.707 2.105,-1.464 3.028,-2.271c0.923,-0.807 2.12,-1.903 3.59,-3.287c0.606,-0.52 1.471,-0.779 2.596,-0.779c1.211,0 2.191,0.332 2.941,0.995c0.75,0.663 1.125,1.6 1.125,2.811c0,1.067 -0.418,2.315 -1.255,3.742c-0.836,1.428 -2.098,2.797 -3.785,4.109c-1.687,1.313 -3.806,2.401 -6.358,3.266c-2.552,0.865 -5.487,1.298 -8.803,1.298c-7.584,0 -13.481,-2.163 -17.692,-6.488c-4.21,-4.326 -6.315,-10.194 -6.315,-17.606c0,-3.489 0.519,-6.726 1.557,-9.711c1.038,-2.984 2.552,-5.544 4.542,-7.678c1.99,-2.134 4.441,-3.77 7.354,-4.909c2.912,-1.139 6.142,-1.709 9.689,-1.709c4.614,0 8.572,0.973 11.874,2.92c3.302,1.946 5.774,4.463 7.418,7.548c1.644,3.086 2.466,6.229 2.466,9.43c0,2.97 -0.851,4.895 -2.552,5.775c-1.702,0.879 -4.095,1.319 -7.181,1.319Zm-23.099,-6.705l21.412,0c-0.288,-4.037 -1.377,-7.058 -3.266,-9.062c-1.889,-2.004 -4.376,-3.006 -7.461,-3.006c-2.942,0 -5.357,1.016 -7.246,3.049c-1.889,2.033 -3.035,5.04 -3.439,9.019Z" style="fill-rule:nonzero;"/><path d="M214.421,352.517l0,1.428c2.077,-2.74 4.347,-4.751 6.813,-6.034c2.466,-1.284 5.299,-1.925 8.5,-1.925c3.114,0 5.897,0.677 8.348,2.033c2.452,1.355 4.283,3.273 5.494,5.753c0.778,1.442 1.283,2.999 1.514,4.671c0.231,1.673 0.346,3.807 0.346,6.402l0,21.974c0,2.365 -0.541,4.153 -1.622,5.364c-1.082,1.211 -2.487,1.817 -4.218,1.817c-1.759,0 -3.186,-0.62 -4.282,-1.86c-1.096,-1.24 -1.644,-3.014 -1.644,-5.321l0,-19.681c0,-3.893 -0.541,-6.871 -1.622,-8.932c-1.081,-2.062 -3.237,-3.093 -6.467,-3.093c-2.105,0 -4.023,0.627 -5.753,1.881c-1.73,1.255 -2.999,2.978 -3.806,5.169c-0.577,1.76 -0.865,5.047 -0.865,9.863l0,14.793c0,2.394 -0.556,4.189 -1.666,5.386c-1.11,1.197 -2.545,1.795 -4.304,1.795c-1.701,0 -3.1,-0.62 -4.196,-1.86c-1.095,-1.24 -1.643,-3.014 -1.643,-5.321l0,-34.129c0,-2.249 0.49,-3.929 1.47,-5.039c0.981,-1.11 2.322,-1.665 4.023,-1.665c1.038,0 1.976,0.245 2.812,0.735c0.836,0.49 1.507,1.226 2.011,2.206c0.505,0.981 0.757,2.177 0.757,3.59Z" style="fill-rule:nonzero;"/><path d="M287.048,387.339c-2.855,2.22 -5.616,3.885 -8.283,4.996c-2.668,1.11 -5.66,1.665 -8.976,1.665c-3.028,0 -5.688,-0.598 -7.981,-1.795c-2.292,-1.197 -4.059,-2.819 -5.299,-4.866c-1.24,-2.048 -1.86,-4.268 -1.86,-6.662c0,-3.23 1.024,-5.984 3.072,-8.262c2.047,-2.278 4.859,-3.806 8.435,-4.585c0.749,-0.173 2.609,-0.562 5.58,-1.168c2.97,-0.605 5.515,-1.161 7.634,-1.665c2.12,-0.505 4.42,-1.118 6.9,-1.839c-0.145,-3.114 -0.772,-5.399 -1.882,-6.856c-1.11,-1.456 -3.41,-2.184 -6.899,-2.184c-2.999,0 -5.256,0.418 -6.77,1.254c-1.514,0.837 -2.812,2.091 -3.893,3.764c-1.081,1.672 -1.846,2.775 -2.293,3.309c-0.447,0.533 -1.405,0.8 -2.876,0.8c-1.327,0 -2.473,-0.425 -3.439,-1.276c-0.966,-0.851 -1.449,-1.939 -1.449,-3.266c0,-2.076 0.735,-4.095 2.206,-6.056c1.471,-1.961 3.763,-3.576 6.878,-4.845c3.114,-1.268 6.993,-1.903 11.636,-1.903c5.19,0 9.271,0.613 12.241,1.839c2.97,1.225 5.068,3.164 6.294,5.817c1.226,2.654 1.838,6.172 1.838,10.555c0,2.768 -0.007,5.119 -0.021,7.051c-0.015,1.932 -0.036,4.08 -0.065,6.445c0,2.22 0.367,4.535 1.103,6.943c0.735,2.407 1.103,3.957 1.103,4.65c0,1.211 -0.57,2.314 -1.709,3.309c-1.139,0.995 -2.429,1.492 -3.871,1.492c-1.211,0 -2.408,-0.57 -3.59,-1.709c-1.183,-1.139 -2.437,-2.79 -3.764,-4.952Zm-0.778,-17.087c-1.731,0.635 -4.247,1.305 -7.549,2.012c-3.301,0.706 -5.587,1.225 -6.856,1.557c-1.268,0.332 -2.48,0.98 -3.633,1.947c-1.154,0.966 -1.73,2.314 -1.73,4.044c0,1.788 0.677,3.309 2.033,4.564c1.355,1.254 3.129,1.881 5.32,1.881c2.336,0 4.492,-0.512 6.467,-1.535c1.975,-1.024 3.424,-2.343 4.347,-3.958c1.067,-1.788 1.601,-4.73 1.601,-8.825l0,-1.687Z" style="fill-rule:nonzero;"/><path d="M49.75,378.558c0,3.258 -0.793,6.048 -2.379,8.37c-1.586,2.321 -3.929,4.08 -7.029,5.277c-3.1,1.197 -6.871,1.795 -11.312,1.795c-4.239,0 -7.872,-0.649 -10.9,-1.947c-3.028,-1.297 -5.263,-2.919 -6.705,-4.866c-1.442,-1.946 -2.163,-3.9 -2.163,-5.861c0,-1.298 0.462,-2.408 1.384,-3.331c0.923,-0.923 2.091,-1.384 3.504,-1.384c1.24,0 2.192,0.303 2.855,0.908c0.663,0.606 1.298,1.457 1.903,2.553c1.211,2.105 2.661,3.676 4.347,4.714c1.687,1.039 3.987,1.558 6.9,1.558c2.365,0 4.304,-0.527 5.818,-1.579c1.514,-1.053 2.271,-2.257 2.271,-3.612c0,-2.076 -0.786,-3.59 -2.358,-4.542c-1.571,-0.952 -4.16,-1.86 -7.764,-2.725c-4.066,-1.009 -7.375,-2.069 -9.927,-3.179c-2.553,-1.111 -4.593,-2.574 -6.121,-4.391c-1.529,-1.817 -2.293,-4.052 -2.293,-6.705c0,-2.364 0.707,-4.599 2.12,-6.704c1.413,-2.105 3.496,-3.785 6.25,-5.04c2.754,-1.254 6.078,-1.881 9.971,-1.881c3.057,0 5.803,0.317 8.24,0.951c2.437,0.635 4.47,1.485 6.099,2.552c1.63,1.067 2.87,2.25 3.72,3.547c0.851,1.298 1.276,2.567 1.276,3.807c0,1.355 -0.454,2.466 -1.362,3.331c-0.909,0.865 -2.199,1.297 -3.872,1.297c-1.211,0 -2.242,-0.346 -3.093,-1.038c-0.85,-0.692 -1.823,-1.73 -2.919,-3.114c-0.894,-1.154 -1.947,-2.077 -3.158,-2.769c-1.211,-0.692 -2.855,-1.038 -4.931,-1.038c-2.134,0 -3.908,0.454 -5.321,1.363c-1.413,0.908 -2.119,2.04 -2.119,3.395c0,1.24 0.519,2.257 1.557,3.05c1.038,0.793 2.437,1.449 4.196,1.968c1.759,0.519 4.181,1.154 7.267,1.903c3.662,0.894 6.654,1.961 8.976,3.201c2.321,1.24 4.08,2.704 5.277,4.391c1.197,1.687 1.795,3.612 1.795,5.775Z" style="fill-rule:nonzero;"/><path d="M258.606,223.747c1.303,-6.628 1.994,-13.475 1.994,-20.478c0,-17.525 -4.281,-34.069 -11.844,-48.647c7.563,-14.575 11.844,-31.119 11.844,-48.644c0,-7.006 -0.691,-13.85 -1.994,-20.478c20.26,16.25 33.266,41.191 33.266,69.122c0,27.934 -13.006,52.872 -33.266,69.125m-103.984,68.125c-27.934,0 -52.872,-13.006 -69.125,-33.266c6.628,1.303 13.475,1.994 20.478,1.994c17.528,0 34.069,-4.281 48.647,-11.844c14.578,7.563 31.119,11.844 48.647,11.844c7.003,0 13.85,-0.691 20.478,-1.994c-16.253,20.26 -41.191,33.266 -69.125,33.266m-137.25,-137.25c0,-27.931 13.006,-52.872 33.266,-69.122c-1.304,6.628 -1.994,13.472 -1.994,20.478c0,17.525 4.281,34.069 11.844,48.644c-7.563,14.578 -11.844,31.122 -11.844,48.647c0,7.003 0.69,13.85 1.994,20.478c-20.26,-16.253 -33.266,-41.191 -33.266,-69.125m192.587,20.478c1.304,-6.628 1.994,-13.472 1.994,-20.478c0,-7.003 -0.69,-13.85 -1.99,-20.478c7.234,5.806 13.54,12.715 18.662,20.478c-5.122,7.765 -11.428,14.675 -18.666,20.478m-75.815,34.862c6.628,1.304 13.475,1.994 20.478,1.994c7.003,0 13.85,-0.69 20.478,-1.994c-5.803,7.235 -12.712,13.544 -20.478,18.663c-7.766,-5.119 -14.675,-11.428 -20.478,-18.663m-34.86,-75.818c-1.303,6.628 -1.993,13.475 -1.993,20.478c0,7.006 0.69,13.85 1.993,20.478c-7.237,-5.803 -13.543,-12.713 -18.665,-20.478c5.122,-7.763 11.428,-14.672 18.665,-20.478m95.297,20.478c0,11.815 -2.343,23.087 -6.559,33.403c-10.316,4.216 -21.588,6.556 -33.4,6.556c-11.813,0 -23.084,-2.34 -33.4,-6.556c-4.216,-10.316 -6.559,-21.588 -6.559,-33.403c0,-11.813 2.343,-23.085 6.559,-33.4c10.316,-4.216 21.587,-6.556 33.4,-6.556c11.812,0 23.084,2.34 33.4,6.556c4.216,10.315 6.559,21.587 6.559,33.4m-19.481,-55.338c-6.628,-1.303 -13.475,-1.993 -20.478,-1.993c-7.003,0 -13.85,0.69 -20.478,1.993c5.803,-7.237 12.712,-13.543 20.478,-18.665c7.766,5.122 14.675,11.428 20.478,18.665m-109.081,6.694c0,-11.816 2.34,-23.087 6.556,-33.403c10.316,-4.213 21.588,-6.556 33.4,-6.556c11.022,0 21.572,2.04 31.316,5.734c-12.228,9.753 -22.257,22.153 -29.216,36.325c-14.169,6.956 -26.569,16.984 -36.325,29.213c-3.694,-9.741 -5.731,-20.291 -5.731,-31.313m0,97.291c0,-11.022 2.037,-21.572 5.731,-31.313c9.756,12.228 22.156,22.256 36.325,29.213c6.959,14.172 16.988,26.568 29.216,36.325c-9.744,3.693 -20.294,5.734 -31.316,5.734c-11.812,0 -23.084,-2.344 -33.4,-6.559c-4.216,-10.316 -6.556,-21.588 -6.556,-33.4m177.206,0c0,11.812 -2.341,23.084 -6.556,33.4c-10.316,4.215 -21.588,6.559 -33.4,6.559c-11.022,0 -21.572,-2.041 -31.316,-5.734c12.228,-9.757 22.256,-22.153 29.216,-36.325c14.169,-6.957 26.569,-16.985 36.325,-29.213c3.694,9.741 5.731,20.291 5.731,31.313m0,-97.291c0,11.022 -2.037,21.572 -5.731,31.313c-9.756,-12.229 -22.156,-22.257 -36.325,-29.213c-6.96,-14.172 -16.988,-26.572 -29.216,-36.325c9.744,-3.694 20.294,-5.734 31.316,-5.734c11.812,0 23.084,2.343 33.4,6.556c4.215,10.316 6.556,21.587 6.556,33.403m-88.603,-88.603c27.934,0 52.872,13.003 69.125,33.262c-6.628,-1.303 -13.475,-1.99 -20.478,-1.99c-17.528,0 -34.069,4.278 -48.647,11.844c-14.578,-7.566 -31.119,-11.844 -48.647,-11.844c-7.003,0 -13.85,0.687 -20.478,1.99c16.253,-20.259 41.191,-33.262 69.125,-33.262m154.622,137.247c0,-41.744 -24.266,-77.925 -59.431,-95.191c-17.263,-35.165 -53.444,-59.431 -95.191,-59.431c-41.747,0 -77.928,24.266 -95.191,59.431c-35.165,17.266 -59.431,53.447 -59.431,95.191c0,41.747 24.266,77.928 59.431,95.194c17.263,35.165 53.444,59.431 95.191,59.431c41.747,0 77.928,-24.266 95.191,-59.431c35.165,-17.266 59.431,-53.447 59.431,-95.194" style="fill-rule:nonzero;"/></svg>